<svg width="25" height="24" viewBox="0 0 25 24" fill="none" xmlns="http://www.w3.org/2000/svg">
<g clip-path="url(#clip0_582_6312)">
<path d="M14.4717 0.0466432C14.5992 -0.0245238 14.7771 -0.00497277 14.9493 0.0388307C15.3603 0.144051 15.4585 1.24002 15.5733 1.91188C15.6999 2.65309 15.7138 3.66362 15.793 3.95192C15.9904 4.66922 17.6035 4.593 18.208 4.71364C19.3155 4.93459 20.1713 4.73942 20.3272 4.70387H20.3291C20.5076 4.66299 20.5893 4.3853 20.7354 4.26149C20.7963 4.20985 20.8808 4.26411 20.9473 4.25173C21.384 4.17028 21.5694 3.19595 21.712 2.75173C21.9054 2.149 22.4319 1.42684 22.6895 1.20973C22.9421 0.997318 23.6093 0.918578 24.2764 0.901135C24.4825 0.895748 24.6168 1.10357 24.7276 1.27516L24.7305 1.27907C25.0362 1.75237 24.8199 2.63531 24.4287 3.54665C24.0357 4.46251 23.8213 4.71909 23.6387 4.99294C23.4597 5.26156 23.4165 5.613 23.3819 6.08669C23.366 6.30384 23.3672 6.65342 23.3604 8.42848C23.3536 10.2046 23.3476 13.3983 23.2012 15.7654C23.0548 18.1323 22.768 19.577 22.584 20.4149C22.2132 22.1032 21.427 22.9066 21.2676 22.9412C20.7189 23.0587 20.1651 21.9544 19.5254 20.3885C19.3472 19.952 19.3336 19.7152 19.3125 19.2459C19.2198 17.1774 19.5614 16.3588 19.5411 16.2186C19.5311 16.1501 19.4716 16.0991 19.4121 16.0662C19.292 16 18.9944 16.0126 18.6329 16.0389C18.4002 16.0559 18.2922 16.2517 18.2061 16.4246C18.1608 16.5157 18.132 16.6237 18.0508 17.5369C17.9696 18.4505 17.8418 20.1693 17.7637 21.1063C17.6769 22.1472 17.5656 22.4071 17.4375 22.6717C17.3512 22.85 17.2273 22.9441 17.0694 23.0252C16.8645 23.1303 16.6378 23.1417 16.458 23.0867C15.9007 22.9161 15.6727 22.0483 15.4414 21.4022C15.3493 21.1445 15.3264 19.7992 15.2813 17.9012C15.2654 17.2331 15.2172 17.1604 15.168 17.1043C14.9053 16.8047 14.2419 16.9895 12.4746 17.7313C11.746 18.0371 11.2147 18.1182 10.4063 18.1795C8.88536 18.2949 7.85439 18.3194 7.73246 18.5008C7.65443 18.617 7.60834 18.8207 7.47953 19.5799C7.35068 20.3394 7.15652 21.6584 7.04105 22.3816C6.91115 23.1953 6.82313 23.3463 6.72367 23.4588C6.61701 23.5793 6.29809 23.5795 5.93754 23.5652C5.67362 23.5546 5.41046 23.2907 5.10648 22.9793C4.82609 22.6921 4.73176 22.2693 4.62601 21.5857C4.2541 19.1815 4.51632 18.3071 4.44242 18.1951C4.36871 18.0839 4.17294 18.1128 4.01957 18.16C3.8812 18.2028 3.81908 18.4637 3.70316 18.9119C3.50524 19.6772 3.43371 20.9485 3.3184 22.3123C3.23547 23.293 3.04375 23.7586 2.94633 23.8943C2.85718 24.0184 2.66521 24.0123 2.48051 23.9764C2.06459 23.8952 1.78733 23.458 1.40531 22.74C1.0043 21.9864 0.932345 21.2362 0.895546 20.7098C0.839956 19.9144 0.911059 19.2609 0.945351 18.9529C0.971321 18.7206 1.14314 17.8276 1.39652 16.5125C1.63458 15.2771 1.86285 14.2949 2.09965 13.7947C2.40363 13.1529 2.48796 12.4082 2.60453 11.869C2.86254 10.676 2.63971 9.17763 2.43949 8.68434C2.18972 8.06935 2.04626 7.17244 1.96586 6.57008C1.95481 6.45584 1.95436 6.37 1.95023 6.11891V6.10915C1.94609 5.85715 1.9398 5.44809 1.98051 5.01833C1.98964 4.59908 2.43552 1.77113 2.70023 1.26833C2.84074 1.00208 3.14412 0.907796 3.29203 0.771253C3.35445 0.713703 3.43725 0.743267 3.51469 0.780042C4.01332 1.01714 4.54149 2.56368 4.86137 3.27712C4.90554 3.37565 4.95338 3.48723 5.01469 3.56813C5.07611 3.64908 5.15145 3.69522 6.21879 3.70973C7.28625 3.72424 9.34407 3.70558 10.6192 3.7029C11.8941 3.70022 12.3248 3.71392 12.5655 3.60329C12.9668 3.41808 13.0787 2.3953 13.42 1.37868C13.7173 0.493373 14.1902 0.203863 14.4717 0.0466432ZM6.55863 6.56716C5.24126 6.61747 5.504 8.12424 5.57914 8.30837C5.62898 8.4297 5.73371 8.51399 5.83012 8.57204C6.17523 8.77974 6.75282 8.65921 6.96391 8.57106C7.39183 8.39234 7.64292 7.92185 7.71976 7.70485C7.80387 7.46668 7.73104 7.2326 7.63969 7.02614C7.53483 6.7892 7.37566 6.69847 7.20414 6.61501C7.12007 6.58594 6.89644 6.55427 6.55863 6.56716ZM9.9268 6.56716C8.60968 6.6175 8.87211 8.12387 8.9473 8.30837C8.99711 8.42962 9.10192 8.51399 9.19828 8.57204C9.54329 8.77967 10.1208 8.6592 10.3321 8.57106C10.76 8.39235 11.0111 7.92185 11.0879 7.70485C11.1721 7.46662 11.0992 7.23264 11.0079 7.02614C10.903 6.7892 10.7438 6.69847 10.5723 6.61501C10.4881 6.58596 10.2644 6.55426 9.9268 6.56716Z" fill="#1100FF"/>
</g>
<defs>
<clipPath id="clip0_582_6312">
<rect width="25" height="24" fill="white"/>
</clipPath>
</defs>
</svg>
