<svg width="25" height="24" viewBox="0 0 25 24" fill="none" xmlns="http://www.w3.org/2000/svg">
<path d="M14.4717 0.0468873C14.5992 -0.0242797 14.7771 -0.00472864 14.9493 0.0390748C15.3603 0.144295 15.4585 1.24026 15.5733 1.91212C15.6999 2.65333 15.7138 3.66386 15.793 3.95216C15.9904 4.66946 17.6035 4.59324 18.208 4.71388C19.3155 4.93483 20.1713 4.73966 20.3272 4.70411H20.3291C20.5076 4.66323 20.5893 4.38554 20.7354 4.26173C20.7963 4.21009 20.8808 4.26435 20.9473 4.25197C21.384 4.17052 21.5694 3.19619 21.712 2.75197C21.9054 2.14924 22.4319 1.42708 22.6895 1.20997C22.9421 0.997562 23.6093 0.918822 24.2764 0.901379C24.4825 0.895992 24.6168 1.10381 24.7276 1.2754L24.7305 1.27931C25.0362 1.75261 24.8199 2.63555 24.4287 3.54689C24.0357 4.46275 23.8213 4.71933 23.6387 4.99318C23.4597 5.2618 23.4165 5.61324 23.3819 6.08693C23.366 6.30408 23.3672 6.65366 23.3604 8.42872C23.3536 10.2048 23.3476 13.3985 23.2012 15.7656C23.0548 18.1325 22.768 19.5772 22.584 20.4151C22.2132 22.1034 21.427 22.9068 21.2676 22.9414C20.7189 23.0589 20.1651 21.9546 19.5254 20.3887C19.3472 19.9522 19.3336 19.7154 19.3125 19.2461C19.2198 17.1776 19.5614 16.359 19.5411 16.2188C19.5311 16.1503 19.4716 16.0993 19.4121 16.0664C19.292 16.0002 18.9944 16.0128 18.6329 16.0391C18.4002 16.0561 18.2922 16.2519 18.2061 16.4248C18.1608 16.5159 18.132 16.6239 18.0508 17.5371C17.9696 18.4507 17.8418 20.1695 17.7637 21.1065C17.6769 22.1474 17.5656 22.4073 17.4375 22.6719C17.3512 22.8502 17.2273 22.9443 17.0694 23.0254C16.8645 23.1305 16.6378 23.1419 16.458 23.0869C15.9007 22.9163 15.6727 22.0485 15.4414 21.4024C15.3493 21.1447 15.3264 19.7994 15.2813 17.9014C15.2654 17.2333 15.2172 17.1606 15.168 17.1045C14.9053 16.8049 14.2419 16.9897 12.4746 17.7315C11.746 18.0373 11.2147 18.1184 10.4063 18.1797C8.88536 18.2951 7.85439 18.3196 7.73246 18.501C7.65443 18.6172 7.60834 18.8209 7.47953 19.5801C7.35068 20.3396 7.15652 21.6586 7.04105 22.3818C6.91115 23.1955 6.82313 23.3465 6.72367 23.459C6.61701 23.5795 6.29809 23.5797 5.93754 23.5654C5.67362 23.5548 5.41046 23.2909 5.10648 22.9795C4.82609 22.6923 4.73176 22.2695 4.62601 21.5859C4.2541 19.1817 4.51632 18.3073 4.44242 18.1953C4.36871 18.0841 4.17294 18.113 4.01957 18.1602C3.8812 18.203 3.81908 18.4639 3.70316 18.9121C3.50524 19.6774 3.43371 20.9487 3.3184 22.3125C3.23547 23.2932 3.04375 23.7588 2.94633 23.8945C2.85718 24.0186 2.66521 24.0125 2.48051 23.9766C2.06459 23.8954 1.78733 23.4582 1.40531 22.7402C1.0043 21.9866 0.932345 21.2364 0.895546 20.71C0.839956 19.9146 0.911059 19.2611 0.945351 18.9531C0.971321 18.7208 1.14314 17.8278 1.39652 16.5127C1.63458 15.2773 1.86285 14.2951 2.09965 13.7949C2.40363 13.1531 2.48796 12.4084 2.60453 11.8692C2.86254 10.6762 2.63971 9.17787 2.43949 8.68458C2.18972 8.06959 2.04626 7.17268 1.96586 6.57032C1.95481 6.45608 1.95436 6.37024 1.95023 6.11915V6.10939C1.94609 5.85739 1.9398 5.44833 1.98051 5.01857C1.98964 4.59932 2.43552 1.77137 2.70023 1.26857C2.84074 1.00232 3.14412 0.90804 3.29203 0.771497C3.35445 0.713947 3.43725 0.743511 3.51469 0.780286C4.01332 1.01738 4.54149 2.56392 4.86137 3.27736C4.90554 3.37589 4.95338 3.48747 5.01469 3.56837C5.07611 3.64932 5.15145 3.69546 6.21879 3.70997C7.28625 3.72448 9.34407 3.70582 10.6192 3.70314C11.8941 3.70046 12.3248 3.71416 12.5655 3.60353C12.9668 3.41832 13.0787 2.39554 13.42 1.37892C13.7173 0.493617 14.1902 0.204107 14.4717 0.0468873ZM6.55863 6.5674C5.24126 6.61771 5.504 8.12448 5.57914 8.30861C5.62898 8.42994 5.73371 8.51423 5.83012 8.57228C6.17523 8.77998 6.75282 8.65945 6.96391 8.5713C7.39183 8.39258 7.64292 7.92209 7.71976 7.70509C7.80387 7.46692 7.73104 7.23284 7.63969 7.02638C7.53483 6.78944 7.37566 6.69871 7.20414 6.61525C7.12007 6.58618 6.89644 6.55451 6.55863 6.5674ZM9.9268 6.5674C8.60968 6.61774 8.87211 8.12411 8.9473 8.30861C8.99711 8.42986 9.10192 8.51423 9.19828 8.57228C9.54329 8.77991 10.1208 8.65944 10.3321 8.5713C10.76 8.39259 11.0111 7.92209 11.0879 7.70509C11.1721 7.46686 11.0992 7.23288 11.0079 7.02638C10.903 6.78944 10.7438 6.69871 10.5723 6.61525C10.4881 6.5862 10.2644 6.5545 9.9268 6.5674Z" fill="#FF0000"/>
</svg>
